PathFileType	4	(X/Y/Z)	/Users/itak/Documents/Research/Walk-IL/dataset/trc/00269_00010.trc
DataRate	CameraRate	NumFrames	NumMarkers	Units	OrigDataRate	OrigDataStartFrame	OrigNumFrames
100.000000	100.000000	4	53	mm	100.000000	111	447
Frame#	Time	RPSI			LPSI			L3			STRN			T10			C7			CLAV			RBAK			LBAK			LSHO			LUPA			LAEL			LAOL			LWTS			LWPS			LFRA			LHPS			LHTS			RSHO			RUPA			RAEL			RAOL			RWTS			RWPS			RFRA			RIFD			RHTS			RHPS			RBHD			LFHD			RFHD			LBHD			LHIP			RHIP			RASI			LKNE			LTHI			LANK			LTIP			LTOE			LMT1			LMT5			LHEE			RKNE			RTHI			RANK			RTIP			RTOE			RMT1			RMT5			RHEE			LIFD			LASI			
		X1	Y1	Z1	X2	Y2	Z2	X3	Y3	Z3	X4	Y4	Z4	X5	Y5	Z5	X6	Y6	Z6	X7	Y7	Z7	X8	Y8	Z8	X9	Y9	Z9	X10	Y10	Z10	X11	Y11	Z11	X12	Y12	Z12	X13	Y13	Z13	X14	Y14	Z14	X15	Y15	Z15	X16	Y16	Z16	X17	Y17	Z17	X18	Y18	Z18	X19	Y19	Z19	X20	Y20	Z20	X21	Y21	Z21	X22	Y22	Z22	X23	Y23	Z23	X24	Y24	Z24	X25	Y25	Z25	X26	Y26	Z26	X27	Y27	Z27	X28	Y28	Z28	X29	Y29	Z29	X30	Y30	Z30	X31	Y31	Z31	X32	Y32	Z32	X33	Y33	Z33	X34	Y34	Z34	X35	Y35	Z35	X36	Y36	Z36	X37	Y37	Z37	X38	Y38	Z38	X39	Y39	Z39	X40	Y40	Z40	X41	Y41	Z41	X42	Y42	Z42	X43	Y43	Z43	X44	Y44	Z44	X45	Y45	Z45	X46	Y46	Z46	X47	Y47	Z47	X48	Y48	Z48	X49	Y49	Z49	X50	Y50	Z50	X51	Y51	Z51	X52	Y52	Z52	X53	Y53	Z53	

112	1.11	652.6334838867188	959.7420654296875	110.5289001464844	646.994384765625	944.9149780273438	-62.88359069824219	662.13525390625	1037.078002929688	14.12143325805664	925.2239379882812	1206.741088867188	16.58992004394531	651.8055419921875	1160.01171875	11.79097652435303	712.652587890625	1400.165771484375	-0.4918398559093475	865.0714721679688	1308.770874023438	12.90489864349365	649.3394165039062	1266.271606445312	76.91361236572266	701.7901000976562	1365.127319335938	-107.8991470336914	797.8605346679688	1367.34765625	-152.5909881591797	771.7635498046875	1254.832885742188	-232.2895965576172	757.3287963867188	1053.661376953125	-256.7713928222656	684.846923828125	1044.957397460938	-207.3023529052734	825.3843383789062	834.61376953125	-209.453369140625	797.86181640625	825.9159545898438	-275.3071594238281	767.2838745117188	952.2454833984375	-267.7080688476562	800.84423828125	736.439453125	-276.1109008789062	849.161865234375	736.2153930664062	-231.3900451660156	777.6697998046875	1376.061157226562	162.8017425537109	766.086181640625	1321.7041015625	232.5506286621094	716.7512817382812	1059.122924804688	281.8839721679688	691.9638061523438	1050.812133789062	190.6675415039062	831.5283203125	845.4024658203125	265.6168823242188	769.6655883789062	835.9227294921875	323.3229370117188	734.5732421875	993.3180541992188	301.7832641601562	843.7078857421875	671.4655151367188	264.3218994140625	867.6031494140625	735.116455078125	296.9448852539062	806.5494384765625	728.5414428710938	330.1625671386719	752.7232055664062	1550.388549804688	76.93170928955078	930.78515625	1570.988647460938	-36.75246047973633	927.1128540039062	1565.14697265625	54.61940002441406	759.1372680664062	1547.7763671875	-71.28736877441406	711.919677734375	897.2166748046875	-161.4926910400391	767.9019775390625	927.7324829101562	209.7094879150391	879.96875	936.8170166015625	129.5303192138672	786.595947265625	435.5920104980469	-158.6159973144531	779.745849609375	577.9967041015625	-166.8393402099609	422.6505432128906	161.5159149169922	-122.9664459228516	607.53662109375	289.370849609375	-154.4750518798828	565.427490234375	34.41350555419922	-35.42669296264648	505.0946655273438	76.38841247558594	-2.315331935882568	506.1557922363281	71.98633575439453	-116.0454711914062	384.8159790039062	201.4298706054688	-71.21505737304688	929.9725341796875	477.1832885742188	156.8851470947266	879.486328125	734.6240844726562	202.5431365966797	927.1946411132812	38.07592010498047	119.4680023193359	962.37451171875	355.0947875976562	136.8528900146484	1124.017456054688	31.61421203613281	60.11057281494141	1063.599853515625	28.29595184326172	23.19042205810547	1031.457153320312	28.63117027282715	134.734130859375	876.370849609375	33.08280563354492	69.41584014892578	824.531005859375	646.7929077148438	-217.4358520507812	852.0194091796875	917.0467529296875	-120.3205108642578	
113	1.12	645.95751953125	959.185546875	110.3228302001953	639.496337890625	944.2781982421875	-62.93194961547852	655.1012573242188	1036.175415039062	13.45097637176514	918.2394409179688	1205.618774414062	14.97564792633057	644.8092651367188	1158.886962890625	10.84701251983643	705.6076049804688	1399.095336914062	-1.560614466667175	858.0502319335938	1307.638549804688	11.51073741912842	642.4411010742188	1265.0947265625	75.82440185546875	694.406494140625	1364.049926757812	-108.9744567871094	790.4161987304688	1366.23876953125	-153.8164978027344	764.3404541015625	1253.685180664062	-233.4740447998047	750.7112426757812	1052.620361328125	-258.1504821777344	678.221923828125	1043.411987304688	-208.6366424560547	821.6085815429688	834.767822265625	-211.1932373046875	794.0238647460938	825.7266235351562	-276.9820861816406	761.6815185546875	951.561767578125	-269.1993103027344	798.4231567382812	736.2911987304688	-277.9068298339844	846.9149780273438	736.8358764648438	-233.3985290527344	770.7766723632812	1374.830932617188	161.6245269775391	759.080078125	1320.478881835938	231.3540344238281	708.5975341796875	1057.98681640625	280.0260009765625	684.4404296875	1049.822143554688	188.706787109375	822.106201171875	843.5363159179688	264.587158203125	759.600341796875	834.3233642578125	321.6738586425781	725.83984375	992.02197265625	300.0742797851562	832.96337890625	669.186767578125	263.838134765625	857.2203979492188	733.0360107421875	296.2361450195312	795.7467651367188	726.7811279296875	328.7619018554688	746.4844360351562	1549.515869140625	75.80331420898438	924.7581787109375	1569.201904296875	-37.65363311767578	920.9530639648438	1563.3017578125	53.61863708496094	753.039794921875	1546.919677734375	-72.42609405517578	703.4271240234375	896.2528076171875	-161.9759674072266	762.8092651367188	927.0066528320312	208.892333984375	873.6602172851562	935.606689453125	127.5657730102539	774.6082153320312	434.474365234375	-159.1917724609375	768.7215576171875	576.8370361328125	-167.6451416015625	414.9812622070312	154.2920837402344	-121.0405883789062	597.5126342773438	285.8243713378906	-153.6832885742188	560.8578491210938	32.31517791748047	-33.78833770751953	499.8407592773438	71.70509338378906	-0.7212986350059509	500.5499267578125	66.97928619384766	-114.193489074707	376.6531982421875	193.6732330322266	-69.20176696777344	925.7391967773438	477.0505065917969	155.9291229248047	874.3876953125	734.291748046875	201.3935546875	927.1932373046875	38.02618408203125	119.5201644897461	959.0504760742188	355.3976440429688	136.1865234375	1124.0126953125	31.65624618530273	59.91040802001953	1063.549926757812	28.23725128173828	23.14698600769043	1031.5166015625	28.66207504272461	134.6752624511719	876.4126586914062	33.08411407470703	69.39022827148438	823.8382568359375	646.9703369140625	-219.5408325195312	843.9532470703125	915.6654663085938	-122.0347366333008	
114	1.13	639.190185546875	958.5361938476562	110.1807479858398	631.6312255859375	943.6317138671875	-62.97873687744141	647.7991943359375	1035.298461914062	12.788987159729	911.0852661132812	1204.452880859375	13.21391582489014	637.6211547851562	1157.817626953125	9.933212280273438	698.4502563476562	1398.044311523438	-2.682932376861572	850.885986328125	1306.487548828125	9.984832763671875	635.4459228515625	1263.991333007812	74.76828002929688	686.8363647460938	1362.993041992188	-110.0879211425781	782.7557373046875	1365.117919921875	-155.1403656005859	756.6494140625	1252.499755859375	-234.7133331298828	743.7893676757812	1051.558471679688	-259.4915466308594	671.33349609375	1041.832763671875	-209.9070587158203	817.7523193359375	835.049560546875	-212.9294738769531	790.0245971679688	825.6088256835938	-278.6391296386719	755.8314819335938	950.8983154296875	-270.6641845703125	795.9320068359375	736.2366943359375	-279.6532897949219	844.6416625976562	737.6312866210938	-235.4232788085938	763.9149780273438	1373.637939453125	160.3546447753906	752.1473999023438	1319.311645507812	230.0767974853516	700.4806518554688	1056.949340820312	278.2079162597656	676.7682495117188	1048.926025390625	186.81103515625	812.4561767578125	841.6503295898438	263.3549194335938	749.396240234375	832.7877197265625	319.943359375	717.115478515625	990.8114013671875	298.3711242675781	821.8914794921875	666.8346557617188	263.0374450683594	846.5081176757812	730.8865966796875	295.2167663574219	784.6917114257812	725.0388793945312	327.2007446289062	740.0877685546875	1548.61083984375	74.59425354003906	918.5536499023438	1567.465209960938	-38.66315841674805	914.5870971679688	1561.486328125	52.58628463745117	746.7669677734375	1546.049560546875	-73.65287017822266	694.55712890625	895.2894897460938	-162.4710845947266	757.3433837890625	926.2052612304688	207.9699249267578	867.0892944335938	934.3580932617188	125.5238037109375	762.6184692382812	433.4310302734375	-159.8553771972656	757.3681030273438	575.76904296875	-168.5183258056641	407.8610534667969	146.7549133300781	-119.125846862793	587.6351928710938	282.2277221679688	-152.9104309082031	557.1098022460938	30.73428153991699	-32.37033462524414	495.424072265625	66.90184783935547	0.6034309864044189	495.7954711914062	62.11493301391602	-112.5137786865234	368.9905395507812	185.3714904785156	-67.15238952636719	921.0816650390625	476.8267211914062	154.9003448486328	868.9794921875	733.8878784179688	200.1517333984375	927.1898193359375	37.97882080078125	119.5532684326172	955.3627319335938	355.6637268066406	135.4644470214844	1123.95068359375	31.76091957092285	59.64077377319336	1063.459350585938	28.15563011169434	23.07315444946289	1031.53515625	28.67589569091797	134.6439666748047	876.4378662109375	33.06787872314453	69.36385345458984	823.22998046875	647.3154296875	-221.6179046630859	835.5394287109375	914.3170776367188	-123.8237609863281	
115	1.14	632.3955688476562	957.7766723632812	110.1101684570312	623.4157104492188	942.9694213867188	-63.02350234985352	640.239013671875	1034.43310546875	12.13442325592041	903.7510375976562	1203.2421875	11.30615043640137	630.2555541992188	1156.80029296875	9.053165435791016	691.1792602539062	1397.014526367188	-3.868233442306519	843.5740356445312	1305.320434570312	8.322969436645508	628.348388671875	1262.958374023438	73.73751068115234	679.0844116210938	1361.956787109375	-111.2507019042969	774.8840942382812	1363.985473632812	-156.5705108642578	748.70068359375	1251.27685546875	-236.014404296875	736.5679321289062	1050.480834960938	-260.8001098632812	664.177978515625	1040.222412109375	-211.1243438720703	813.7843017578125	835.4617309570312	-214.6573791503906	785.843994140625	825.56103515625	-280.2750854492188	749.726318359375	950.2537231445312	-272.1055297851562	793.3438720703125	736.2782592773438	-281.3394775390625	842.3027954101562	738.6014404296875	-237.4439544677734	757.0745849609375	1372.485961914062	158.9856567382812	745.2808837890625	1318.204223632812	228.7131652832031	692.4099731445312	1056.015991210938	276.4432678222656	668.96044921875	1048.117553710938	184.9877166748047	802.6009521484375	839.7512817382812	261.9112854003906	739.0899047851562	831.33154296875	318.1449584960938	708.4146118164062	989.6915893554688	296.6768798828125	810.5260620117188	664.4219360351562	261.8983459472656	835.4957275390625	728.6795654296875	293.8711547851562	773.4181518554688	723.3283081054688	325.4914245605469	733.5372314453125	1547.676635742188	73.29942321777344	912.1847534179688	1565.776489257812	-39.7777099609375	908.0387573242188	1559.6953125	51.50357437133789	740.3295288085938	1545.179809570312	-74.96673583984375	685.3392944335938	894.3339233398438	-162.9815826416016	751.5100708007812	925.3077392578125	206.9490509033203	860.2478637695312	933.055419921875	123.408821105957	750.6424560546875	432.4499816894531	-160.5765533447266	745.670166015625	574.8012084960938	-169.4537048339844	401.1801452636719	139.1034851074219	-117.2815399169922	577.8428344726562	278.6250305175781	-152.1865539550781	554.059326171875	29.75066947937012	-31.18186950683594	491.691162109375	62.21751022338867	1.691060304641724	491.7673645019531	57.62174606323242	-111.0598297119141	361.6853637695312	176.7151184082031	-65.15185546875	916.02734375	476.5078430175781	153.7923736572266	863.226806640625	733.3858032226562	198.8065795898438	927.1753540039062	37.9260368347168	119.5646514892578	951.3397827148438	355.8744506835938	134.6870880126953	1123.80908203125	31.97863388061523	59.29187774658203	1063.316162109375	28.05753517150879	22.9648380279541	1031.506469726562	28.72088623046875	134.6265563964844	876.4332275390625	33.02272796630859	69.33851623535156	822.6571655273438	647.84765625	-223.6350708007812	826.7942504882812	913.0003051757812	-125.6814193725586	
